<svg version="1.2" xmlns="http://www.w3.org/2000/svg" viewBox="0 0 57 57" width="57" height="57">
	<style>
		.s0 { fill: #ffffff } 
	</style>
	<path class="s0" d="m0 33.18c0.87-1.77 1.5-3.18 2.48-4.83q-0.39-0.84-0.74-1.69-0.35-0.85-0.66-1.72-0.31-0.87-0.58-1.75-0.27-0.88-0.5-1.77zm5.29-33.18c0 0-5.29 0-5.29 6.56v1.05q0.25 2.26 0.65 4.5 0.41 2.24 0.97 4.45 0.56 2.21 1.27 4.37 0.71 2.16 1.57 4.27 1.01-1.61 2.14-3.13 1.14-1.52 2.39-2.95 1.26-1.42 2.63-2.74 1.37-1.31 2.84-2.51c8.54-7.35 18.64-11.63 34.31-13.87z"/>
	<path class="s0" d="m56.42 3.59c-17.93 1.71-30.17 6.83-38.95 14.33q-1.62 1.32-3.11 2.79-1.48 1.47-2.83 3.07-1.34 1.6-2.52 3.32-1.18 1.72-2.2 3.55c6.87 13.37 20.86 24.6 42.74 26h0.45c0 0 6.73 0.23 6.73-7.25v-45.87q-0.03 0.01-0.07 0.02-0.03 0.01-0.07 0.02-0.03 0.01-0.07 0.01-0.03 0.01-0.07 0.01m-46.12 38.06q-0.76-0.9-1.48-1.84-0.72-0.94-1.38-1.92-0.67-0.97-1.29-1.98-0.61-1.01-1.18-2.05-0.73 1.41-1.41 2.85-0.69 1.43-1.31 2.9-0.63 1.46-1.2 2.94-0.57 1.49-1.08 2.99v11.06l33 0.06c-10.45-3.18-16.74-8-22.7-15"/>
</svg>