<svg id="Artwork" xmlns="http://www.w3.org/2000/svg" viewBox="0 0 686.13 58.84"><path d="M171,328.75a18.83,18.83,0,0,1-8.74-1.83l1.23-3a14.93,14.93,0,0,0,6.78,1.63c4.56,0,7.93-2.77,7.93-6.78,0-8.51-15.17-5-15.17-15.79,0-5.1,4.1-9.61,10.7-9.61a15.84,15.84,0,0,1,7.75,1.83l-1.14,2.68a12.39,12.39,0,0,0-6.15-1.64c-4.24,0-7,2.63-7,6.39,0,8.17,15.3,4.55,15.3,15.89C182.45,324.5,177.62,328.75,171,328.75Z" transform="translate(-87.87 -280.63)" style="fill:#003c57"/><path d="M214.3,328.11h-3.51l-6-19.66a20.84,20.84,0,0,1-.73-3.22H204a19.64,19.64,0,0,1-.69,3.22L197,328.11h-3.5l-8.38-26.69h4.14l5.5,19.58a24.82,24.82,0,0,1,.69,3.41h.09a22.24,22.24,0,0,1,.72-3.41l6.06-19.61H206L211.84,321a33,33,0,0,1,.78,3.41h.09a30.25,30.25,0,0,1,.68-3.41l5.6-19.61h3.69Z" transform="translate(-87.87 -280.63)" style="fill:#003c57"/><path d="M234.58,338.76h-4.32L235,328.11l-9.84-26.69h4.28l6.43,19.66a29.79,29.79,0,0,1,.91,3.61h.09s.41-1.83,1-3.61l6.6-19.66h3.65Z" transform="translate(-87.87 -280.63)" style="fill:#003c57"/><path d="M263.52,328.75c-8.43,0-12.66-5.25-12.66-13.52,0-8.91,5.1-14.26,12.66-14.26a20.07,20.07,0,0,1,5,.6V289.24h3.87v37.68A18.74,18.74,0,0,1,263.52,328.75Zm5-25a17,17,0,0,0-4.14-.45c-7,0-9.52,5.75-9.52,11.59,0,6.78,2.59,11.24,8.92,11.24a9.72,9.72,0,0,0,4.74-1Z" transform="translate(-87.87 -280.63)" style="fill:#003c57"/><path d="M290.17,328.75c-8.43,0-12.66-5.25-12.66-13.52,0-8.91,5.1-14.26,12.66-14.26a20.07,20.07,0,0,1,5,.6V289.24H299v37.68A18.7,18.7,0,0,1,290.17,328.75Zm5-25a17.54,17.54,0,0,0-4.15-.45c-7,0-9.52,5.75-9.52,11.59,0,6.78,2.6,11.24,8.93,11.24a9.72,9.72,0,0,0,4.74-1Z" transform="translate(-87.87 -280.63)" style="fill:#003c57"/><path d="M311.5,303.8v24.31h-3.88V303.8h-4v-2.38h4v-3.86c0-4.85,2.87-8.37,8.52-8.37.41,0,.91.05.91.05v2.48h-.45c-2.69,0-5.1,1.73-5.1,5.39v4.31h5.55v2.38Z" transform="translate(-87.87 -280.63)" style="fill:#003c57"/><path d="M329.9,328.75c-7.42,0-10.75-3.12-10.75-7.87,0-7.28,7.52-9.31,16.54-10.15V309.1c0-4.31-2.92-5.65-6.88-5.65a17.4,17.4,0,0,0-6.92,1.54l-1-2.38a21.64,21.64,0,0,1,8.61-1.83c5.42,0,9.89,2.18,9.89,8.66v17.48A21.36,21.36,0,0,1,329.9,328.75Zm5.79-15.94c-7.7.89-12.75,2.23-12.75,8,0,4,2.91,5.65,7.37,5.65a12.18,12.18,0,0,0,5.38-1.09Z" transform="translate(-87.87 -280.63)" style="fill:#003c57"/><path d="M371.74,313.33v14.81h-6V313.33l-10.43-19.26h6.38L369,308.58h.09l7.47-14.51h5.74Z" transform="translate(-87.87 -280.63)" style="fill:#003c57"/><path d="M391.88,328.83a16.74,16.74,0,0,1-8.06-1.93l1.5-3.67a11.09,11.09,0,0,0,5.83,1.59c2.92,0,5.24-1.88,5.24-4.16,0-6.34-11.7-3.37-11.7-12.08,0-4,3.55-7.82,9.33-7.82a14.26,14.26,0,0,1,7.52,1.93L400,306a8.82,8.82,0,0,0-4.87-1.53c-3,0-4.78,1.78-4.78,3.81,0,5.94,11.93,3.32,11.93,12.23C402.31,324.77,398.26,328.83,391.88,328.83Z" transform="translate(-87.87 -280.63)" style="fill:#003c57"/><path d="M416.81,328.73c-5.6,0-7.74-3.62-7.74-7.23V304.91h-3.74v-3.46h3.74v-6l5.69-1.59v7.58H420v3.46h-5.19v16.3a3.43,3.43,0,0,0,3.14,3.71,2.79,2.79,0,0,0,.5,0,5.4,5.4,0,0,0,1.55-.25v3.51A8.1,8.1,0,0,1,416.81,328.73Z" transform="translate(-87.87 -280.63)" style="fill:#003c57"/><path d="M434.58,328.83c-7.83,0-11.52-3.12-11.52-8.22,0-7.18,7.51-9.11,16.44-9.9v-1.54c0-3.66-2.51-4.75-6.15-4.75a19,19,0,0,0-7.24,1.53l-1.32-3.26a25.17,25.17,0,0,1,9.61-1.93c5.92,0,10.47,2.42,10.47,9.25V326.9A24.08,24.08,0,0,1,434.58,328.83Zm4.92-15.45c-6.61.69-11,1.93-11,7.08,0,3.61,2.55,5.15,6.56,5.15a10.53,10.53,0,0,0,4.46-.89Z" transform="translate(-87.87 -280.63)" style="fill:#003c57"/><path d="M462.92,328.83c-8.61,0-13.34-5-13.34-13.67S454.77,301,462.28,301a19.88,19.88,0,0,1,4.74.55V289.27h5.69V326.9A21.32,21.32,0,0,1,462.92,328.83Zm4.1-24.26a14.09,14.09,0,0,0-3.42-.4c-5.87,0-8.19,4.95-8.19,10.65,0,6.48,2.27,10.35,7.69,10.35a8.69,8.69,0,0,0,3.92-.85Z" transform="translate(-87.87 -280.63)" style="fill:#003c57"/><path d="M482.93,316.85c.54,5.29,3.46,8,8.38,8a17.49,17.49,0,0,0,7.51-1.54l1.37,3.62a21.51,21.51,0,0,1-9.38,1.93c-8.16,0-13.39-4.95-13.39-14.11,0-8.82,4.87-14,12.25-14s11.52,4.7,11.52,13.66Zm6.51-12.63c-3.92,0-7,3.12-6.88,9.75l13.12-1.83C495.68,306.65,493.22,304.22,489.44,304.22Z" transform="translate(-87.87 -280.63)" style="fill:#003c57"/><path d="M516.1,339.47a25.18,25.18,0,0,1-10-1.88l1.5-3.66a20,20,0,0,0,7.66,1.53c5,0,7.15-2.57,7.15-6.29v-1.73a13.33,13.33,0,0,1-5.88,1.09c-7,0-11.61-5.1-11.61-13.17,0-8.62,4.69-14.6,13.84-14.6,4,0,7.52.88,9.3,1.93v25.94C528.08,335.66,523.2,339.47,516.1,339.47ZM522.43,305a8.42,8.42,0,0,0-3.92-.84c-5.19,0-7.74,4.21-7.74,11,0,6.59,2.55,10.15,7.47,10.15a9.19,9.19,0,0,0,4.19-.89Z" transform="translate(-87.87 -280.63)" style="fill:#003c57"/><path d="M544.12,328.83c-7.84,0-11.53-3.12-11.53-8.22,0-7.18,7.52-9.11,16.45-9.9v-1.54c0-3.66-2.51-4.75-6.15-4.75a19,19,0,0,0-7.24,1.53l-1.32-3.26a25.08,25.08,0,0,1,9.6-1.93c5.93,0,10.48,2.42,10.48,9.25V326.9A24.08,24.08,0,0,1,544.12,328.83ZM549,313.38c-6.61.69-11,1.93-11,7.08,0,3.61,2.56,5.15,6.56,5.15a10.57,10.57,0,0,0,4.47-.89Z" transform="translate(-87.87 -280.63)" style="fill:#003c57"/><path d="M571,328.83c-7.56,0-10.89-3.52-10.89-9.21V301.45h5.69v18.47c0,2.82,1.78,5,5.47,5a11.16,11.16,0,0,0,4.87-.89V301.45h5.7V326.9A26.3,26.3,0,0,1,571,328.83Z" transform="translate(-87.87 -280.63)" style="fill:#003c57"/><path d="M616.56,328.83c-9.83,0-16.44-6.29-16.44-17.92,0-11.05,7.2-17.53,16.72-17.53,4.5,0,7.33.89,9.24,1.93l-1.45,3.61a16.8,16.8,0,0,0-7-1.28c-6.51,0-11.29,4.06-11.29,13.51,0,8.92,4.46,13.57,10,13.57a11.39,11.39,0,0,0,4.69-.79V312.29h-6v-3.56h11.75V326.9C624.58,328.09,621.16,328.83,616.56,328.83Z" transform="translate(-87.87 -280.63)" style="fill:#003c57"/><path d="M661.89,328.14h-5.28l-5.24-17.43a21.72,21.72,0,0,1-.68-3.47h-.09a21.72,21.72,0,0,1-.68,3.47l-5.42,17.43h-5.29L631,301.45h5.88l4.69,17.82a25.39,25.39,0,0,1,.64,3.67h.09a23,23,0,0,1,.77-3.67l5.33-17.82h5l5.15,17.82a26.77,26.77,0,0,1,.73,3.67h.09a24.09,24.09,0,0,1,.64-3.67l4.83-17.82h5.23Z" transform="translate(-87.87 -280.63)" style="fill:#003c57"/><path d="M674.21,328.14V289.27h5.69v38.87Z" transform="translate(-87.87 -280.63)" style="fill:#003c57"/><path d="M696.17,328.83c-7.84,0-11.52-3.12-11.52-8.22,0-7.18,7.51-9.11,16.44-9.9v-1.54c0-3.66-2.51-4.75-6.15-4.75A19,19,0,0,0,687.7,306l-1.32-3.26a25.17,25.17,0,0,1,9.61-1.93c5.92,0,10.47,2.42,10.47,9.25V326.9A24.08,24.08,0,0,1,696.17,328.83Zm4.92-15.45c-6.61.69-11,1.93-11,7.08,0,3.61,2.55,5.15,6.55,5.15a10.57,10.57,0,0,0,4.47-.89Z" transform="translate(-87.87 -280.63)" style="fill:#003c57"/><path d="M724.51,328.83c-8.61,0-13.34-5-13.34-13.67S716.36,301,723.87,301a19.88,19.88,0,0,1,4.74.55V289.27h5.69V326.9A21.32,21.32,0,0,1,724.51,328.83Zm4.1-24.26a14,14,0,0,0-3.41-.4c-5.88,0-8.2,4.95-8.2,10.65,0,6.48,2.27,10.35,7.69,10.35a8.72,8.72,0,0,0,3.92-.85Z" transform="translate(-87.87 -280.63)" style="fill:#003c57"/><path d="M751.21,328.83c-8.15,0-12.2-6-12.2-14s4-14.06,12.2-14.06,12.16,6.08,12.16,14.06S759.36,328.83,751.21,328.83Zm0-24.41c-4.92,0-6.37,5.15-6.37,10.35s1.54,10.15,6.37,10.15,6.38-4.95,6.38-10.15-1.46-10.35-6.38-10.35Z" transform="translate(-87.87 -280.63)" style="fill:#003c57"/><path d="M768.3,328.14V289.27H774v38.87Z" transform="translate(-87.87 -280.63)" style="fill:#003c57"/><path d="M87.89,313.81c.85-1.77,1.48-3.15,2.46-4.83a39.74,39.74,0,0,1-2.48-6.93v11.76m5.29-33.18s-5.29,0-5.29,6.56v1.05a65.25,65.25,0,0,0,4.46,17.59,46,46,0,0,1,10-11.33c8.57-7.35,18.64-11.63,34.31-13.87Z" transform="translate(-87.87 -280.63)" style="fill:#a8bd3a"/><path d="M144.29,284.22c-17.93,1.71-30.17,6.83-38.95,14.33a43.84,43.84,0,0,0-10.66,12.73c6.87,13.37,20.86,24.6,42.74,26h.42s6.73.23,6.73-7.25V284.16a1.4,1.4,0,0,1-.28.06M98.2,322.28a46.47,46.47,0,0,1-5.33-7.79,84.09,84.09,0,0,0-5,11.68v11.06l33,.06c-10.45-3.18-16.74-8-22.7-15" transform="translate(-87.87 -280.63)" style="fill:#003c57"/></svg>