<svg id="Artwork" xmlns="http://www.w3.org/2000/svg" viewBox="0 0 618.29 237.84"><path d="M264.36,416.71c-11,0-15.89-9.09-15.89-20.29s4.92-20.29,15.89-20.29,15.84,9.21,15.84,20.29S275.34,416.71,264.36,416.71Zm0-37.4c-8.1,0-11,8.87-11,17s2.61,16.82,11,16.82,10.93-8.81,10.93-16.82S272.47,379.31,264.36,379.31Z" transform="translate(-107.71 -240.94)" style="fill:#fff"/><path d="M293.85,388.07V416h-4.44V388.07h-4.55v-2.73h4.55v-4.43c0-5.57,3.29-9.61,9.77-9.61.47,0,1.05.06,1.05.06v2.84h-.52c-3.09,0-5.86,2-5.86,6.19v4.95h6.38v2.73Z" transform="translate(-107.71 -240.94)" style="fill:#fff"/><path d="M312.2,388.07V416h-4.44V388.07h-4.55v-2.73h4.55v-4.43c0-5.57,3.29-9.61,9.77-9.61.47,0,1.05.06,1.05.06v2.84h-.52c-3.09,0-5.86,2-5.86,6.19v4.95h6.38v2.73Z" transform="translate(-107.71 -240.94)" style="fill:#fff"/><path d="M325.9,379.49a2.75,2.75,0,0,1-2.82-2.68v-.05a2.82,2.82,0,0,1,5.64,0,2.75,2.75,0,0,1-2.77,2.73ZM323.65,416V385.34h4.5V416Z" transform="translate(-107.71 -240.94)" style="fill:#fff"/><path d="M347.29,416.71c-7.27,0-12.86-6.25-12.86-16.08,0-10,5.59-16,13-16,3.71,0,6.17,1,7.48,2.1l-1.16,2.73a9.06,9.06,0,0,0-5.33-1.65c-6.22,0-9.4,5.4-9.4,12.68,0,7.5,3.65,12.84,9.25,12.84a9.64,9.64,0,0,0,5.43-1.65l1.21,3C353.61,415.69,351,416.71,347.29,416.71Z" transform="translate(-107.71 -240.94)" style="fill:#fff"/><path d="M362.18,402.5c.58,7.22,4.55,10.86,10.77,10.86a17.76,17.76,0,0,0,8.31-1.88l1.31,3.13a21.58,21.58,0,0,1-9.93,2.1c-8.62,0-14.74-5.11-14.74-16.14,0-10.51,5.64-16,13.33-16s12.54,4.78,12.54,15Zm8.89-15c-5,0-9.15,3.86-9.09,12.45l17.4-2.39C379.38,390.45,376,387.5,371.07,387.5Z" transform="translate(-107.71 -240.94)" style="fill:#fff"/><path d="M412.22,388.07V416h-4.45V388.07h-4.54v-2.73h4.54v-4.43c0-5.57,3.3-9.61,9.78-9.61.47,0,1,.06,1,.06v2.84H418c-3.08,0-5.85,2-5.85,6.19v4.95h6.37v2.73Z" transform="translate(-107.71 -240.94)" style="fill:#fff"/><path d="M434.85,416.71c-9,0-13.17-7-13.17-16s4.13-16.09,13.17-16.09,13.12,7,13.12,16.09S443.9,416.71,434.85,416.71Zm0-29.1c-6.69,0-8.62,6.77-8.62,13.08s2.09,12.78,8.62,12.78c6.69,0,8.62-6.48,8.62-12.78S441.54,387.61,434.85,387.61Z" transform="translate(-107.71 -240.94)" style="fill:#fff"/><path d="M467.27,388.18c-2.83-.74-7-.62-8.89.57V416h-4.5V386.7c3.24-1.36,6.49-2.1,12.23-2.1.79,0,1.84,0,2.3.06Z" transform="translate(-107.71 -240.94)" style="fill:#fff"/><path d="M274.45,478,257.1,451.2a38.28,38.28,0,0,1-2.25-4h-.1s.15,2.27.15,4.66V478h-5.69V438.9h6.42L272.1,464a36,36,0,0,1,2.3,4h.1s-.2-2.22-.2-4.55V438.87H280V478Z" transform="translate(-107.71 -240.94)" style="fill:#fff"/><path d="M298.76,478.77c-9,0-13.22-3.59-13.22-9.44,0-8.24,8.63-10.46,18.87-11.37V456.2c0-4.21-2.87-5.46-7.05-5.46a21.86,21.86,0,0,0-8.32,1.77l-1.51-3.75a29,29,0,0,1,11-2.22c6.79,0,12,2.78,12,10.63v19.38C308,477.86,303.84,478.77,298.76,478.77ZM304.41,461c-7.58.8-12.65,2.22-12.65,8.13,0,4.15,2.93,5.91,7.53,5.91a12,12,0,0,0,5.12-1Z" transform="translate(-107.71 -240.94)" style="fill:#fff"/><path d="M328.35,478.65c-6.43,0-8.89-4.15-8.89-8.3v-19h-4.28v-4h4.28v-6.88l6.54-1.82v8.7h6v4h-6V470a3.92,3.92,0,0,0,3.58,4.25,4,4,0,0,0,.6,0A6.56,6.56,0,0,0,332,474v4A9.66,9.66,0,0,1,328.35,478.65Z" transform="translate(-107.71 -240.94)" style="fill:#fff"/><path d="M340.38,442.05a3.43,3.43,0,1,1,3.81-3.41A3.65,3.65,0,0,1,340.38,442.05ZM337.09,478V447.34h6.58V478Z" transform="translate(-107.71 -240.94)" style="fill:#fff"/><path d="M363.33,478.77c-9.36,0-14-6.94-14-16.09s4.65-16.14,14-16.14,13.95,7,13.95,16.14S372.68,478.77,363.33,478.77Zm0-28c-5.65,0-7.32,5.91-7.32,11.88s1.77,11.65,7.32,11.65,7.31-5.68,7.31-11.65-1.64-11.91-7.31-11.91Z" transform="translate(-107.71 -240.94)" style="fill:#fff"/><path d="M401.6,478V456.09c0-3.93-3.35-5.41-7.11-5.41a14.86,14.86,0,0,0-5.28.91V478h-6.54V448.76a32.34,32.34,0,0,1,12.18-2.22c8,0,13.33,2.72,13.33,9.43v22Z" transform="translate(-107.71 -240.94)" style="fill:#fff"/><path d="M426.59,478.77c-9,0-13.23-3.59-13.23-9.44,0-8.24,8.63-10.46,18.87-11.37V456.2c0-4.21-2.87-5.46-7.05-5.46a21.62,21.62,0,0,0-8.31,1.77l-1.52-3.75a29,29,0,0,1,11-2.22c6.79,0,12,2.78,12,10.63v19.38C435.79,477.86,431.66,478.77,426.59,478.77ZM432.23,461c-7.58.8-12.65,2.22-12.65,8.13,0,4.15,2.93,5.91,7.53,5.91a12,12,0,0,0,5.12-1Z" transform="translate(-107.71 -240.94)" style="fill:#fff"/><path d="M445.15,478V433.35h6.53V478Z" transform="translate(-107.71 -240.94)" style="fill:#fff"/><path d="M482.79,478.77a23.1,23.1,0,0,1-10.66-2.22l1.83-4.78a16.18,16.18,0,0,0,7.52,1.88c4.55,0,7.79-2.67,7.79-6.54,0-8.58-16.26-5.28-16.26-17.45,0-6.2,5-11.59,13-11.59a19.22,19.22,0,0,1,9.4,2.22l-1.66,4.26a14.54,14.54,0,0,0-6.85-1.82c-4.24,0-7,2.56-7,6.2,0,8.41,16.62,4.77,16.62,17.72C496.48,473.59,490.79,478.77,482.79,478.77Z" transform="translate(-107.71 -240.94)" style="fill:#fff"/><path d="M513.06,478.65c-6.43,0-8.89-4.15-8.89-8.3v-19h-4.28v-4h4.28v-6.88l6.54-1.82v8.7h6v4h-6V470a3.92,3.92,0,0,0,3.58,4.25,4,4,0,0,0,.6,0,6.36,6.36,0,0,0,1.78-.28v4A9.68,9.68,0,0,1,513.06,478.65Z" transform="translate(-107.71 -240.94)" style="fill:#fff"/><path d="M533.45,478.77c-9,0-13.22-3.59-13.22-9.44,0-8.24,8.62-10.46,18.86-11.37V456.2c0-4.21-2.87-5.46-7.05-5.46a21.62,21.62,0,0,0-8.31,1.77l-1.52-3.75a29,29,0,0,1,11-2.22c6.79,0,12,2.78,12,10.63v19.38C542.65,477.86,538.52,478.77,533.45,478.77ZM539.09,461c-7.57.8-12.64,2.22-12.64,8.13,0,4.15,2.92,5.91,7.52,5.91a12,12,0,0,0,5.12-1Z" transform="translate(-107.71 -240.94)" style="fill:#fff"/><path d="M563,478.65c-6.43,0-8.89-4.15-8.89-8.3v-19h-4.29v-4h4.29v-6.88l6.53-1.82v8.7h6v4h-6V470a4,4,0,0,0,3.6,4.26h.59a6.23,6.23,0,0,0,1.77-.28v4A9.47,9.47,0,0,1,563,478.65Z" transform="translate(-107.71 -240.94)" style="fill:#fff"/><path d="M575.06,442.05a3.43,3.43,0,1,1,3.82-3.41A3.64,3.64,0,0,1,575.06,442.05ZM571.77,478V447.34h6.59V478Z" transform="translate(-107.71 -240.94)" style="fill:#fff"/><path d="M592.63,478.77a19.11,19.11,0,0,1-9.25-2.22l1.72-4.21a12.8,12.8,0,0,0,6.69,1.82c3.35,0,6-2.16,6-4.77,0-7.28-13.43-3.87-13.43-13.87,0-4.55,4.08-9,10.71-9a16.43,16.43,0,0,1,8.63,2.22l-1.72,3.8a10.25,10.25,0,0,0-5.6-1.76c-3.39,0-5.49,2-5.49,4.38,0,6.82,13.7,3.8,13.7,14C604.6,474.1,600,478.77,592.63,478.77Z" transform="translate(-107.71 -240.94)" style="fill:#fff"/><path d="M621.23,478.65c-6.43,0-8.89-4.15-8.89-8.3v-19h-4.28v-4h4.28v-6.88l6.54-1.82v8.7h6v4h-6V470a3.92,3.92,0,0,0,3.58,4.25,4,4,0,0,0,.6,0,6.36,6.36,0,0,0,1.78-.28v4A9.68,9.68,0,0,1,621.23,478.65Z" transform="translate(-107.71 -240.94)" style="fill:#fff"/><path d="M633.26,442.05a3.43,3.43,0,1,1,3.82-3.41A3.65,3.65,0,0,1,633.26,442.05ZM630,478V447.34h6.59V478Z" transform="translate(-107.71 -240.94)" style="fill:#fff"/><path d="M655.48,478.77c-7.53,0-13.28-6.15-13.28-16.15s5.91-16.08,13.32-16.08a12.74,12.74,0,0,1,7.85,2.22l-1.47,3.69a8.26,8.26,0,0,0-4.81-1.48c-5.33,0-8.1,4.6-8.1,11.48s3.19,11.6,8,11.6a8.27,8.27,0,0,0,4.81-1.54l1.62,4C662.06,477.69,659.39,478.77,655.48,478.77Z" transform="translate(-107.71 -240.94)" style="fill:#fff"/><path d="M675.6,478.77a19.23,19.23,0,0,1-9.25-2.22l1.73-4.21a12.8,12.8,0,0,0,6.69,1.82c3.34,0,6-2.16,6-4.77,0-7.28-13.43-3.87-13.43-13.87,0-4.55,4.07-9,10.71-9a16.43,16.43,0,0,1,8.63,2.22l-1.73,3.8a10.13,10.13,0,0,0-5.59-1.76c-3.4,0-5.49,2-5.49,4.38,0,6.82,13.69,3.8,13.69,14C687.57,474.1,682.92,478.77,675.6,478.77Z" transform="translate(-107.71 -240.94)" style="fill:#fff"/><path d="M257.09,291.59a21.49,21.49,0,0,1-10-2.11l1.41-3.4a17.43,17.43,0,0,0,7.79,1.87c5.22,0,9.09-3.18,9.09-7.78,0-9.78-17.4-5.74-17.4-18.13,0-5.86,4.7-11,12.28-11a18.23,18.23,0,0,1,8.89,2.1l-1.31,3.07a14.31,14.31,0,0,0-7.06-1.87c-4.86,0-8,3-8,7.33,0,9.37,17.57,5.23,17.57,18.24C270.27,286.7,264.73,291.59,257.09,291.59Z" transform="translate(-107.71 -240.94)" style="fill:#fff"/><path d="M306.82,290.85h-4l-6.95-22.56a26.06,26.06,0,0,1-.84-3.7h-.1a22.37,22.37,0,0,1-.79,3.7L287,290.85h-4l-9.61-30.63h4.75l6.33,22.5a29.23,29.23,0,0,1,.78,3.92h.11a26,26,0,0,1,.83-3.92l7-22.5h4.18l6.74,22.5a37.65,37.65,0,0,1,.89,3.92h0a37.22,37.22,0,0,1,.78-3.92l6.43-22.5h4.23Z" transform="translate(-107.71 -240.94)" style="fill:#fff"/><path d="M330.11,303.07h-5l5.49-12.22-11.29-30.63h4.91l7.37,22.56a33.18,33.18,0,0,1,1.05,4.15h.1s.47-2.11,1.15-4.15l7.58-22.56h4.18Z" transform="translate(-107.71 -240.94)" style="fill:#fff"/><path d="M363.31,291.59c-9.67,0-14.53-6-14.53-15.52,0-10.23,5.86-16.36,14.53-16.36a23.27,23.27,0,0,1,5.7.68V246.24h4.44v43.24A21.42,21.42,0,0,1,363.31,291.59Zm5.7-28.7a20.06,20.06,0,0,0-4.76-.51c-8,0-10.92,6.59-10.92,13.29,0,7.79,3,12.91,10.24,12.91a11.14,11.14,0,0,0,5.44-1.2Z" transform="translate(-107.71 -240.94)" style="fill:#fff"/><path d="M393.91,291.59c-9.68,0-14.54-6-14.54-15.52,0-10.23,5.86-16.36,14.54-16.36a23.19,23.19,0,0,1,5.69.68V246.24h4.45v43.24A21.54,21.54,0,0,1,393.91,291.59Zm5.69-28.7a20,20,0,0,0-4.75-.51c-8,0-10.93,6.59-10.93,13.29,0,7.79,3,12.91,10.25,12.91a11.13,11.13,0,0,0,5.43-1.2Z" transform="translate(-107.71 -240.94)" style="fill:#fff"/><path d="M418.38,262.94v27.91h-4.44V262.94h-4.55v-2.72h4.55v-4.43c0-5.58,3.29-9.61,9.77-9.61.47,0,1.05.06,1.05.06v2.84h-.52c-3.09,0-5.86,2-5.86,6.19v5h6.38V263Z" transform="translate(-107.71 -240.94)" style="fill:#fff"/><path d="M439.51,291.59c-8.52,0-12.34-3.58-12.34-9,0-8.35,8.63-10.68,19-11.65V269c0-4.95-3.34-6.48-7.89-6.48a19.79,19.79,0,0,0-7.94,1.76l-1.15-2.73a24.72,24.72,0,0,1,9.88-2.1c6.22,0,11.34,2.5,11.34,9.94v20.06A24.48,24.48,0,0,1,439.51,291.59Zm6.63-18.3c-8.83,1-14.63,2.56-14.63,9.15,0,4.54,3.35,6.48,8.47,6.48a13.91,13.91,0,0,0,6.16-1.25Z" transform="translate(-107.71 -240.94)" style="fill:#fff"/><path d="M264.26,335.87v17h-6.85v-17l-12-22.11h7.31L261,330.41h.1l8.57-16.65h6.59Z" transform="translate(-107.71 -240.94)" style="fill:#fff"/><path d="M287.38,353.66a19.15,19.15,0,0,1-9.26-2.22l1.73-4.2a12.8,12.8,0,0,0,6.69,1.82c3.34,0,6-2.16,6-4.78,0-7.27-13.43-3.86-13.43-13.87,0-4.54,4.07-9,10.71-9a16.33,16.33,0,0,1,8.63,2.21l-1.73,3.81a10.13,10.13,0,0,0-5.59-1.76c-3.4,0-5.49,2-5.49,4.37,0,6.82,13.69,3.81,13.69,14C299.34,349,294.69,353.66,287.38,353.66Z" transform="translate(-107.71 -240.94)" style="fill:#fff"/><path d="M316,353.54c-6.43,0-8.89-4.15-8.89-8.29v-19h-4.29v-4h4.29v-6.88l6.53-1.81v8.69h6v4h-6V345a4,4,0,0,0,3.6,4.26,5.8,5.8,0,0,0,.59,0,6.24,6.24,0,0,0,1.77-.29v4A9.42,9.42,0,0,1,316,353.54Z" transform="translate(-107.71 -240.94)" style="fill:#fff"/><path d="M336.38,353.66c-9,0-13.22-3.58-13.22-9.44,0-8.23,8.62-10.45,18.87-11.36V331.1c0-4.21-2.88-5.46-7.06-5.46a21.8,21.8,0,0,0-8.31,1.76l-1.52-3.75a29.22,29.22,0,0,1,11-2.21c6.8,0,12,2.78,12,10.62v19.38C345.58,352.75,341.45,353.66,336.38,353.66ZM342,335.93c-7.58.79-12.65,2.22-12.65,8.12,0,4.15,2.92,5.91,7.53,5.91a12,12,0,0,0,5.12-1Z" transform="translate(-107.71 -240.94)" style="fill:#fff"/><path d="M368.91,353.66c-9.88,0-15.32-5.74-15.32-15.69s6-16.31,14.59-16.31a23.09,23.09,0,0,1,5.43.63v-14h6.54v43.19C377.64,352.75,373.93,353.66,368.91,353.66Zm4.7-27.85a16.15,16.15,0,0,0-3.92-.45c-6.74,0-9.41,5.68-9.41,12.22,0,7.44,2.62,11.87,8.84,11.87a10,10,0,0,0,4.49-1Z" transform="translate(-107.71 -240.94)" style="fill:#fff"/><path d="M391.87,339.9c.63,6.09,4,9.16,9.62,9.16a20.15,20.15,0,0,0,8.62-1.77l1.57,4.15a24.41,24.41,0,0,1-10.77,2.22c-9.35,0-15.36-5.68-15.36-16.2,0-10.11,5.59-16,14.06-16s13.22,5.39,13.22,15.68Zm7.48-14.49c-4.5,0-8.05,3.58-7.9,11.2l15.06-2.1C406.51,328.2,403.69,325.41,399.35,325.41Z" transform="translate(-107.71 -240.94)" style="fill:#fff"/><path d="M429.94,365.88a29,29,0,0,1-11.45-2.16l1.73-4.21a22.64,22.64,0,0,0,8.78,1.76c5.75,0,8.21-2.95,8.21-7.22v-2a15.33,15.33,0,0,1-6.75,1.25c-8,0-13.33-5.86-13.33-15.12,0-9.89,5.39-16.76,15.89-16.76,4.55,0,8.63,1,10.67,2.21v29.78C443.69,361.5,438.1,365.88,429.94,365.88Zm7.27-39.61a9.47,9.47,0,0,0-4.5-1c-6,0-8.88,4.83-8.88,12.62,0,7.56,2.92,11.65,8.57,11.65a10.5,10.5,0,0,0,4.81-1Z" transform="translate(-107.71 -240.94)" style="fill:#fff"/><path d="M462.1,353.66c-9,0-13.22-3.58-13.22-9.44,0-8.23,8.62-10.45,18.87-11.36V331.1c0-4.21-2.88-5.46-7.06-5.46a21.8,21.8,0,0,0-8.31,1.76l-1.51-3.75a28.84,28.84,0,0,1,11-2.21c6.8,0,12,2.78,12,10.62v19.38C471.3,352.75,467.17,353.66,462.1,353.66Zm5.65-17.73c-7.58.79-12.65,2.22-12.65,8.12,0,4.15,2.93,5.91,7.52,5.91a12.08,12.08,0,0,0,5.13-1Z" transform="translate(-107.71 -240.94)" style="fill:#fff"/><path d="M492.91,353.66c-8.68,0-12.5-4-12.5-10.57V322.23H487v21.2c0,3.24,2,5.74,6.27,5.74a12.76,12.76,0,0,0,5.59-1V322.23h6.54v29.21C502.94,352.63,498.5,353.66,492.91,353.66Z" transform="translate(-107.71 -240.94)" style="fill:#fff"/><path d="M545.25,353.66c-11.29,0-18.87-7.22-18.87-20.57,0-12.68,8.26-20.12,19.19-20.12,5.17,0,8.41,1,10.61,2.21l-1.67,4.15c-1.31-.74-4.5-1.47-8.06-1.47-7.47,0-13,4.66-13,15.51,0,10.23,5.12,15.57,11.5,15.57a12.74,12.74,0,0,0,5.39-.91V334.68h-6.85v-4.09H557v20.85C554.45,352.81,550.53,353.66,545.25,353.66Z" transform="translate(-107.71 -240.94)" style="fill:#fff"/><path d="M597.28,352.86h-6.06l-6-20a24.83,24.83,0,0,1-.79-4h-.1a24.83,24.83,0,0,1-.79,4l-6.22,20h-6.06l-9.41-30.63h6.74L574,342.69a28.51,28.51,0,0,1,.73,4.21h.1a26.27,26.27,0,0,1,.89-4.21l6.12-20.46h5.75l5.9,20.46a30.16,30.16,0,0,1,.84,4.21h.11a27.26,27.26,0,0,1,.73-4.21l5.54-20.46h6Z" transform="translate(-107.71 -240.94)" style="fill:#fff"/><path d="M611.42,352.86V308.25H618v44.61Z" transform="translate(-107.71 -240.94)" style="fill:#fff"/><path d="M636.62,353.66c-9,0-13.23-3.58-13.23-9.44,0-8.23,8.63-10.45,18.87-11.36V331.1c0-4.21-2.87-5.46-7-5.46a22,22,0,0,0-8.32,1.76l-1.51-3.75a28.84,28.84,0,0,1,11-2.21c6.8,0,12,2.78,12,10.62v19.38C645.82,352.75,641.69,353.66,636.62,353.66Zm5.64-17.73c-7.57.79-12.65,2.22-12.65,8.12,0,4.15,2.93,5.91,7.53,5.91a12,12,0,0,0,5.12-1Z" transform="translate(-107.71 -240.94)" style="fill:#fff"/><path d="M669.15,353.66c-9.88,0-15.32-5.74-15.32-15.69s6-16.31,14.59-16.31a23.09,23.09,0,0,1,5.43.63v-14h6.54v43.19C677.88,352.75,674.17,353.66,669.15,353.66Zm4.7-27.85a16.15,16.15,0,0,0-3.92-.45c-6.74,0-9.41,5.68-9.41,12.22,0,7.44,2.62,11.87,8.84,11.87a10,10,0,0,0,4.49-1Z" transform="translate(-107.71 -240.94)" style="fill:#fff"/><path d="M699.79,353.66c-9.36,0-14-6.94-14-16.08s4.65-16.14,14-16.14,14,7,14,16.14S709.15,353.66,699.79,353.66Zm0-28c-5.64,0-7.31,5.91-7.31,11.88s1.77,11.65,7.31,11.65,7.32-5.69,7.32-11.65-1.67-11.9-7.32-11.9Z" transform="translate(-107.71 -240.94)" style="fill:#fff"/><path d="M719.41,352.86V308.25H726v44.61Z" transform="translate(-107.71 -240.94)" style="fill:#fff"/><path d="M107.72,309.66c1.71-3.56,3.5-7.05,5.47-10.4a113.36,113.36,0,0,1-5.46-16.78C107.72,291.85,107.72,301.84,107.72,309.66Zm10.61-68.72s-10.59,0-10.59,13.13v7a124.67,124.67,0,0,0,7.68,34.57,111.26,111.26,0,0,1,21.7-25.3c17.15-14.71,40.25-24.89,71.6-29.37Z" transform="translate(-107.71 -240.94)" style="fill:#fff"/><path d="M220.54,248.12c-35.85,3.42-60.34,13.67-77.88,28.67a105.26,105.26,0,0,0-23,28.3c13.76,26.73,40,46.37,83.73,49.24h4.26s13.44.46,13.44-14.51V248A4.88,4.88,0,0,1,220.54,248.12Zm-92.16,76.13a92.09,92.09,0,0,1-10.67-15.59,169.64,169.64,0,0,0-10,23.38v22.29H179.4c-22.35-5.33-39.1-16.1-51-30.08Z" transform="translate(-107.71 -240.94)" style="fill:#fff"/></svg>